<?xml version="1.0" encoding="utf-8"?>
<!-- Generator: Adobe Illustrator 16.0.0, SVG Export Plug-In . SVG Version: 6.00 Build 0)  -->
<!DOCTYPE svg PUBLIC "-//W3C//DTD SVG 1.1//EN" "http://www.w3.org/Graphics/SVG/1.1/DTD/svg11.dtd">
<svg version="1.1" id="Layer_1" xmlns="http://www.w3.org/2000/svg" xmlns:xlink="http://www.w3.org/1999/xlink" x="0px" y="0px"
	 width="190px" height="32px" viewBox="0 0 190 32" style="enable-background:new 0 0 190 32;" xml:space="preserve">
<style type="text/css">
<![CDATA[
	.st0{fill-rule:evenodd;clip-rule:evenodd;fill:#12A049;}
]]>
</style>
<path class="st0" d="M9.6,8.4C9.4,8.9,9.2,9.5,9,10.3c-0.2,0.7-0.5,1.4-0.7,2c-0.2,0.6-0.4,1.2-0.5,1.7c0,0.1,0,0.1,0,0.1
	c0,0,0,0.1,0,0.1c0.2,0,0.4,0,0.7,0c0.3,0,0.7,0,1.1,0c0.5,0,0.9,0,1.3,0c0.4,0,0.6,0,0.8,0c0,0,0.1,0,0.1-0.1c0,0,0-0.1,0-0.1
	c-0.1-0.3-0.3-0.8-0.5-1.5c-0.2-0.7-0.4-1.4-0.7-2.2c-0.3-0.8-0.5-1.4-0.7-2C9.7,8.4,9.7,8.4,9.6,8.4L9.6,8.4z M21.1,22.2
	c0,0.1-0.1,0.2-0.1,0.3c-0.4,0-0.9,0-1.6,0c-0.7,0-1.7-0.1-2.9-0.1c-0.8,0-1.5,0-2.1,0.1c-0.5,0-1,0-1.4,0c-0.4,0-0.8,0-1.1,0
	c0-0.1-0.1-0.3-0.1-0.5c0-0.2,0-0.4,0.1-0.5c0.3-0.1,0.6-0.1,0.8-0.2c0.3-0.1,0.5-0.1,0.7-0.2c0.1-0.1,0.2-0.2,0.3-0.3
	c0.1-0.1,0.1-0.2,0-0.3c-0.1-0.3-0.2-0.8-0.4-1.3c-0.2-0.5-0.3-1-0.5-1.5c-0.2-0.5-0.4-0.9-0.5-1.3c0,0-0.1-0.1-0.1-0.2
	C12.1,16,12.1,16,12,16c-0.3,0-0.6,0-1,0s-0.9,0-1.3,0c-0.6,0-1.1,0-1.5,0c-0.4,0-0.7,0-1,0c0,0-0.1,0-0.1,0.1C7,16.2,7,16.3,7,16.3
	c-0.2,0.5-0.4,1-0.6,1.5c-0.2,0.5-0.3,1-0.4,1.4c-0.1,0.4-0.2,0.7-0.2,0.9c0,0.2,0,0.4,0.1,0.6C6,20.9,6.3,21,6.6,21.1
	c0.2,0.1,0.5,0.1,0.7,0.2c0.2,0.1,0.5,0.1,0.8,0.2c0,0,0,0.1,0,0.3c0,0.1,0,0.3,0,0.5c0,0.1,0,0.2-0.1,0.3c-0.4,0-1,0-1.6,0
	c-0.6,0-1.4-0.1-2.3-0.1c-0.6,0-1.2,0-1.8,0.1c-0.6,0-1.2,0-1.7,0c-0.1-0.1-0.1-0.3-0.1-0.5c0-0.2,0-0.4,0.1-0.5
	C1.5,21.3,2,21.2,2.4,21c0.4-0.1,0.7-0.3,1-0.7C3.6,20,3.8,19.5,4,19c0.4-1,0.9-2.1,1.4-3.4c0.5-1.3,0.9-2.5,1.4-3.8
	c0.5-1.3,0.9-2.4,1.3-3.5C8.5,7.4,8.8,6.6,9,6C9.1,5.7,9.2,5.4,9.4,5c0.1-0.4,0.2-0.8,0.3-1.1c0.2,0,0.5,0,0.8,0.1
	c0.3,0,0.5,0,0.8,0c0.3,0,0.6,0,0.9,0c0.3,0,0.5-0.1,0.7-0.1l0.5,1.8c0.3,0.8,0.6,1.7,1,2.9s0.8,2.3,1.3,3.5
	c0.4,1.2,0.9,2.4,1.3,3.5c0.4,1.1,0.7,2,1,2.7c0.3,0.8,0.6,1.5,0.9,1.8c0.2,0.4,0.5,0.7,0.9,0.9s0.9,0.3,1.7,0.4c0,0,0,0.1,0,0.3
	C21.2,21.8,21.2,22,21.1,22.2z M36.6,3.6c1.1,0.1,2,0.2,2.8,0.3c-0.1,0.3-0.2,0.8-0.3,1.4C39.1,5.9,39,6.5,39,7.1
	c0,0.7-0.1,1.3-0.1,1.9c-0.1,0-0.2,0.1-0.4,0.1c-0.2,0-0.3,0-0.5,0c-0.2,0-0.3,0-0.3-0.1c-0.1-0.9-0.3-1.6-0.5-2.2
	C37,6.3,36.6,5.8,36,5.4c-0.6-0.3-1.1-0.5-1.8-0.6c-0.6-0.1-1.2-0.1-1.8-0.1c-1.1,0-2.1,0.3-2.9,0.9c-0.8,0.6-1.5,1.5-1.9,2.6
	c-0.5,1.2-0.7,2.7-0.7,4.5c0,1,0.1,2.1,0.4,3.1c0.2,1,0.6,1.9,1.1,2.8s1.2,1.5,2.1,2s1.9,0.8,3.1,0.8c0.4,0,0.9,0,1.5-0.2
	c0.5-0.1,1-0.4,1.5-0.8c0.4-0.3,0.8-0.8,1.2-1.3c0.4-0.5,0.8-1.1,1.1-1.7c0.1,0,0.3,0.1,0.5,0.3c0.2,0.1,0.4,0.2,0.5,0.4
	c-0.2,0.4-0.4,0.9-0.7,1.5C39,20,38.7,20.5,38.4,21c-0.3,0.5-0.6,0.9-0.9,1.1c-0.5,0.2-1.1,0.3-1.9,0.5c-0.7,0.2-1.6,0.3-2.8,0.3
	c-2.3,0-4.2-0.4-5.9-1.1s-2.9-1.8-3.7-3.3C22.4,17,22,15.1,22,13c0-1.1,0.2-2.2,0.5-3.3c0.4-1.1,0.9-2,1.7-2.9
	c0.7-0.9,1.7-1.6,2.8-2.1c0.8-0.4,1.7-0.8,2.8-1c1-0.2,2.2-0.3,3.5-0.3C34.4,3.4,35.5,3.5,36.6,3.6z M56.6,3.8L56.6,3.8
	c0,0.1,0.1,0.1,0.1,0.1c-0.1,0.3-0.2,0.7-0.2,1.2c-0.1,0.5-0.1,1.1-0.1,1.6c0,0.6-0.1,1.2-0.1,1.8c-0.1,0-0.2,0.1-0.4,0.1
	c-0.2,0-0.3,0-0.5,0c-0.1,0-0.2,0-0.3,0c-0.1-0.6-0.2-1-0.3-1.4c-0.1-0.4-0.2-0.7-0.3-0.9c-0.2-0.3-0.4-0.5-0.6-0.6
	c-0.2-0.1-0.4-0.2-0.6-0.2c-0.2,0-0.5,0-0.9,0c-0.4,0-0.9,0-1.4,0c-0.4,0-0.9,0-1.3,0c-0.4,0-0.6,0-0.8,0c-0.1,0-0.1,0.1-0.2,0.2
	C48.7,5.8,48.7,6,48.7,6c0,1,0,1.9,0,2.9c0,1,0,2,0,3c0,0,0,0.1,0.1,0.1c0,0,0.1,0.1,0.1,0.1c0.3,0,0.7,0,1.1,0c0.5,0,1,0,1.5,0
	c0.5,0,0.9,0,1.3,0c0.3,0,0.5-0.1,0.7-0.3c0.2-0.2,0.3-0.4,0.4-0.8c0-0.2,0.1-0.4,0.1-0.5c0-0.2,0.1-0.4,0.1-0.6c0.1,0,0.2,0,0.4,0
	c0.2,0,0.3,0,0.5,0s0.3,0.1,0.4,0.1c0,0.4,0,0.8-0.1,1.4c-0.1,0.6-0.1,1.1-0.1,1.6c0,0.4,0,0.9,0,1.5c0,0.6,0,1.1,0,1.5
	c0,0-0.1,0.1-0.4,0.1c-0.2,0-0.3,0-0.5,0c-0.1,0-0.3,0-0.4,0l-0.3-1.3c-0.1-0.2-0.2-0.4-0.4-0.6c-0.1-0.1-0.4-0.2-0.6-0.3
	c-0.2,0-0.5,0-1,0c-0.5,0-1,0-1.5,0c-0.5,0-1,0-1.3,0c0,0-0.1,0.1-0.1,0.1c-0.1,0-0.1,0.1-0.1,0.1v5.3c0,0.2,0.1,0.5,0.2,0.7
	c0.1,0.2,0.3,0.3,0.5,0.3c0.3,0.1,0.8,0.1,1.4,0.2c0.7,0,1.5,0,2.4,0c0.7,0,1.2,0,1.5-0.1c0.3-0.1,0.6-0.4,1-0.8
	c0.3-0.3,0.6-0.8,0.9-1.3c0.3-0.5,0.5-1,0.8-1.6c0.1,0,0.2,0,0.4,0.1c0.2,0,0.3,0.1,0.4,0.1c0.2,0.1,0.3,0.1,0.3,0.2
	c0,0.3-0.1,0.7-0.3,1.3c-0.2,0.6-0.3,1.2-0.5,1.8c-0.2,0.6-0.4,1.1-0.6,1.5c0,0.1-0.2,0.2-0.4,0.3c-0.2,0.1-0.6,0.2-1.3,0.2
	c-1.3,0-2.6,0-4.1,0c-1.5,0-3-0.1-4.6-0.1c-0.8,0-1.8,0-2.8,0.1c-1,0-1.9,0-2.8,0c0-0.1,0-0.3,0-0.5s0-0.4,0-0.5
	c0.5-0.1,1-0.1,1.4-0.2c0.4-0.1,0.7-0.1,0.9-0.2c0.3-0.1,0.5-0.2,0.6-0.4c0.1-0.2,0.2-0.6,0.2-1c0-0.8,0.1-1.8,0.1-3
	c0-1.2,0-2.6,0-4.3c0-0.8,0-1.5,0-2.3c0-0.7,0-1.4-0.1-2c0-0.6,0-1.1,0-1.5c0-0.4-0.1-0.7-0.3-0.9c-0.1-0.2-0.3-0.3-0.6-0.4
	C43.2,5.1,42.9,5,42.6,5s-0.5-0.1-0.9-0.1c0-0.1,0-0.2,0-0.4c0-0.1,0-0.3,0-0.4c0-0.2,0-0.3,0.1-0.3c0.6,0,1.4,0,2.2,0
	c0.9,0,1.7,0.1,2.5,0.1h6.1c0.6,0,1.3,0,2-0.1S56,3.8,56.6,3.8z M66.5,16.7c-0.1,0.3-0.2,0.4-0.3,0.5c-0.1,0-0.3,0-0.7,0
	c-0.4,0-0.9,0-1.5,0c-0.6,0-1.2,0-1.8,0c-0.6,0-1.1,0-1.6,0c-0.5,0-0.8,0-0.9,0v-0.1c0-0.1,0-0.2,0-0.2c0-0.2,0-0.5,0.1-0.8
	c0-0.3,0.1-0.6,0.1-0.9c0.1-0.3,0.1-0.4,0.2-0.4l6.5-0.2c0,0,0,0.1,0,0.2c0,0.1,0,0.1,0,0.1c0,0.2,0,0.4-0.1,0.8
	S66.6,16.4,66.5,16.7z M83.4,17.4c0.2-0.4,0.4-0.9,0.6-1.3c0.1,0,0.2,0,0.4,0.1c0.2,0,0.3,0.1,0.5,0.1c0.2,0.1,0.3,0.1,0.3,0.2
	c0,0.2-0.1,0.5-0.2,1c-0.1,0.5-0.3,1-0.5,1.6c-0.2,0.6-0.4,1.1-0.5,1.6c-0.2,0.5-0.4,1-0.6,1.3c0,0.1-0.2,0.3-0.4,0.4
	c-0.3,0.1-0.7,0.1-1.4,0.1c-0.8,0-1.7,0-2.7,0c-0.9,0-1.9,0-2.8,0c-1,0-1.9-0.1-2.7-0.1c-1.2,0-2.1,0-2.8,0.1c-0.7,0-1.3,0-1.9,0
	c-0.1-0.1-0.1-0.3-0.1-0.5s0-0.4,0.1-0.5c0.5-0.1,0.8-0.1,1-0.1c0.2-0.1,0.5-0.1,0.8-0.2c0.3-0.1,0.5-0.2,0.6-0.4
	c0.1-0.2,0.2-0.5,0.2-0.9c0-0.2,0-0.7,0-1.4c0-0.7,0.1-1.6,0.1-2.6c0-1,0-2,0-3c0-1.2,0-2.1,0-3c0-0.8,0-1.5,0-2c0-0.5,0-1-0.1-1.4
	c0-0.3,0-0.5-0.1-0.8c-0.1-0.2-0.4-0.4-0.7-0.5c-0.2,0-0.4-0.1-0.7-0.1c-0.3,0-0.6-0.1-1-0.1c0-0.1,0-0.2,0-0.4c0-0.1,0-0.3,0-0.4
	c0-0.1,0.1-0.2,0.1-0.3c0.4,0,0.8,0,1.2,0c0.4,0,0.9,0,1.4,0c0.5,0,1.2,0.1,2,0.1c1.1,0,2,0,2.6-0.1c0.7,0,1.3,0,1.9,0
	c0,0.1,0.1,0.2,0.1,0.3c0,0.1,0,0.3-0.1,0.5c0,0.1,0,0.2,0,0.3C77.6,5,77.3,5,77.1,5c-0.2,0-0.4,0.1-0.6,0.1
	c-0.3,0.1-0.5,0.3-0.6,0.5c-0.1,0.2-0.1,0.5-0.1,0.9c0,0.2,0,0.8,0,1.8c0,1,0,2.2,0,3.8c0,1,0,2.1,0,3.2c0,1.1,0,2,0,2.8
	c0,0.8,0.1,1.4,0.1,1.7c0,0.3,0.1,0.5,0.2,0.6c0.1,0.1,0.2,0.2,0.4,0.3c0.2,0,0.6,0.1,1,0.1c0.4,0,0.9,0,1.4,0s1,0,1.5,0
	c0.3,0,0.5-0.1,0.9-0.2c0.3-0.2,0.5-0.4,0.9-0.8c0.2-0.3,0.5-0.6,0.7-1C82.9,18.3,83.2,17.9,83.4,17.4z M93,9.7c1.1,0,2,0.3,2.7,0.8
	c0.7,0.5,1.2,1.1,1.5,1.8c0.3,0.7,0.5,1.3,0.6,1.9c0,0.1,0,0.2,0.2,0.3c0.1,0.1,0.2,0.2,0.3,0.2c0,0.1,0,0.2,0,0.4s-0.1,0.3-0.2,0.4
	c-0.2,0.1-0.6,0.2-1.3,0.3c-0.6,0.1-1.3,0.1-2,0.1c-0.8,0.1-1.5,0.1-2.3,0.2c-0.8,0.1-1.4,0.1-2,0.1c0,0-0.1,0-0.1,0.1s0,0.1,0,0.1
	c0,0.4,0.1,0.9,0.4,1.3c0.2,0.5,0.5,0.9,0.8,1.3c0.3,0.3,0.8,0.6,1.3,0.8c0.5,0.2,1,0.3,1.6,0.3c0.6,0,1.2-0.1,1.8-0.3
	c0.6-0.2,1.1-0.5,1.8-0.9l0.1,0c0,0.1,0,0.1,0,0.2c0,0.2,0,0.3,0,0.5C98,19.7,98,19.9,98,20c-0.7,0.8-1.6,1.5-2.6,2
	c-1,0.5-2,0.8-3,0.8c-0.9,0-1.7-0.1-2.3-0.4c-0.7-0.3-1.2-0.6-1.7-1.1c-0.7-0.6-1.1-1.4-1.5-2.3c-0.3-0.9-0.4-1.8-0.4-2.8
	c0-1.3,0.3-2.4,0.8-3.3c0.5-0.9,1.2-1.7,2-2.2c0.6-0.3,1.2-0.6,1.8-0.8C91.7,9.8,92.3,9.7,93,9.7z M93.4,11.9
	C93.1,11.3,92.6,11,92,11c-0.5,0-0.9,0.3-1.3,1c-0.3,0.6-0.5,1.5-0.5,2.5c0,0,0,0.1,0.1,0.1s0.1,0.1,0.1,0.1c0.2,0,0.6,0,1,0
	c0.4,0,0.9,0,1.3,0c0.4,0,0.7-0.1,0.9-0.1c0,0,0.1-0.1,0.1-0.1c0-0.1,0.1-0.1,0.1-0.2C93.9,13.3,93.7,12.5,93.4,11.9z M106.6,16.4
	c0,0,0-0.1,0-0.1c0,0,0,0,0,0c-0.3,0.1-0.6,0.2-0.9,0.3c-0.4,0.1-0.7,0.3-1,0.4c-0.3,0.1-0.5,0.2-0.6,0.3c-0.1,0.1-0.1,0.3-0.2,0.5
	c-0.1,0.2-0.1,0.4-0.1,0.6c0,0.5,0.1,0.9,0.3,1.3s0.5,0.6,0.8,0.8c0.3,0.1,0.6,0.2,1,0.2c0.1,0,0.3,0,0.3,0c0.1,0,0.2-0.1,0.3-0.2
	c0.1,0,0.1-0.1,0.2-0.2c0-0.1,0-0.2,0-0.3c0-0.3,0-0.7,0-1.2c0-0.4,0-0.8,0-1.3C106.6,16.9,106.6,16.6,106.6,16.4z M108.1,10.3
	c0.6,0.3,1.1,0.8,1.5,1.4c0.3,0.5,0.5,0.9,0.7,1.4c0.1,0.5,0.1,1.1,0.1,1.6c0,0.5,0,1,0,1.6c0,0.5,0,1.1,0,1.7c0,0.5,0,1,0,1.4
	c0,0.3,0.1,0.6,0.2,0.8c0.1,0.2,0.3,0.4,0.6,0.4c0.1,0,0.3,0,0.5,0c0.2,0,0.4,0,0.5-0.1c0,0,0,0.1,0,0.3c0,0.2,0,0.4,0,0.5
	c0,0.2-0.1,0.3-0.1,0.3c-0.4,0.4-1,0.7-1.6,0.9c-0.6,0.2-1.2,0.3-1.8,0.3c-0.5,0-0.9-0.1-1.3-0.3c-0.3-0.2-0.5-0.4-0.6-0.7
	c0-0.1-0.1-0.1-0.1-0.3c0-0.1,0-0.2-0.1-0.3c0,0,0,0,0,0h0c-0.8,0.5-1.5,0.9-2.1,1.1c-0.6,0.2-1.1,0.4-1.3,0.4c-0.4,0-0.7,0-1-0.2
	c-0.3-0.1-0.6-0.3-0.8-0.5c-0.4-0.4-0.7-0.8-0.9-1.3c-0.2-0.5-0.3-1.1-0.3-1.7c0-0.1,0-0.3,0.1-0.5c0-0.2,0.1-0.5,0.2-0.8
	c0.1-0.2,0.1-0.4,0.2-0.5c0.2-0.1,0.6-0.3,1.2-0.5c0.5-0.2,1-0.3,1.6-0.5c0.6-0.2,1.2-0.3,1.8-0.5c0.5-0.2,1-0.3,1.3-0.4
	c0.1,0,0.1,0,0.2-0.1c0-0.1,0.1-0.2,0.1-0.3c0-0.1,0.1-0.1,0.1-0.1c0-0.1,0-0.1,0-0.2c0-0.3,0-0.6-0.1-0.9s-0.2-0.5-0.4-0.8
	c-0.2-0.3-0.5-0.6-0.9-0.8c-0.4-0.1-0.8-0.2-1.2-0.2c-0.3,0-0.6,0-0.9,0.1c-0.3,0.1-0.5,0.2-0.6,0.4c-0.1,0.1-0.2,0.2-0.3,0.5
	c-0.2,0.2-0.3,0.5-0.4,0.8c-0.1,0.2-0.2,0.4-0.3,0.5c-0.1,0.1-0.2,0.1-0.3,0c-0.2-0.1-0.3-0.1-0.5-0.3s-0.3-0.2-0.3-0.3
	c0-0.1,0-0.3,0.1-0.5c0.1-0.3,0.2-0.6,0.3-0.9c0.1-0.3,0.2-0.5,0.3-0.6c0.5-0.4,1.1-0.7,1.7-1c0.6-0.3,1.2-0.5,1.8-0.7
	c0.5-0.2,1-0.3,1.4-0.3C106.8,9.7,107.5,9.9,108.1,10.3z M124,11.3c0,0.2-0.1,0.4-0.3,0.8c-0.1,0.4-0.3,0.7-0.5,1.1
	s-0.4,0.7-0.5,0.9c-0.1,0-0.2,0-0.3,0c-0.1,0-0.2,0-0.2,0c-0.3-0.3-0.7-0.6-1.1-0.9c-0.4-0.2-0.9-0.4-1.3-0.4c-0.2,0-0.3,0-0.5,0.1
	c-0.1,0-0.3,0.1-0.4,0.3c0,0-0.1,0.1-0.1,0.1c0,0.1,0,0.2,0,0.3c0,0.4,0,0.9,0,1.6s0,1.3,0,2c0,0.7,0,1.2,0,1.7c0,0.5,0,0.8,0,0.9
	c0,0.5,0.1,0.8,0.2,1c0.1,0.2,0.3,0.3,0.6,0.4c0.2,0.1,0.5,0.1,0.7,0.2c0.3,0.1,0.5,0.1,0.9,0.2c0,0,0,0.1,0,0.3
	c0,0.1,0,0.3-0.1,0.5c0,0.1-0.1,0.2-0.1,0.3c-0.3,0-0.9,0-1.6,0c-0.7,0-1.7-0.1-2.8-0.1c-0.7,0-1.4,0-2,0.1c-0.6,0-1.1,0-1.5,0
	c0-0.1,0-0.3,0-0.5s0-0.4,0-0.5c0.2,0,0.5-0.1,0.7-0.1s0.4-0.1,0.5-0.1c0.1-0.1,0.3-0.2,0.3-0.3c0.1-0.2,0.1-0.4,0.2-0.7
	c0-0.2,0-0.6,0-1.1c0-0.5,0-1.1,0-1.7c0-0.6,0-1.3,0-1.9c0-0.5,0-1,0-1.5c0-0.4,0-0.8,0-1c0-0.2-0.1-0.4-0.3-0.5
	c-0.2-0.2-0.6-0.4-1.3-0.7c0-0.1,0-0.3,0-0.5c0-0.2,0.1-0.3,0.1-0.4c0.4,0,1-0.1,1.6-0.3c0.6-0.1,1.3-0.3,2-0.4
	c0.6-0.2,1.2-0.4,1.6-0.7c0,0,0.1,0,0.1,0.1c0.1,0.1,0.1,0.1,0.2,0.1c0,0.1,0,0.4,0,0.6c0,0.3-0.1,0.6-0.1,1c0,0.3,0,0.6,0,0.7
	c0,0.1,0,0.1,0.1,0.1h0.1c0.3-0.4,0.6-0.7,0.9-0.9c0.3-0.3,0.6-0.5,0.9-0.8c0.2-0.2,0.5-0.3,0.8-0.4s0.6-0.2,1-0.3
	c0.4,0,0.8,0.1,1,0.3c0.3,0.2,0.5,0.4,0.7,0.6c0,0.1,0,0.2,0,0.4S124,11.2,124,11.3z M132.4,10.2c0.7-0.3,1.3-0.5,1.8-0.5
	c0.7,0,1.3,0.1,1.8,0.4c0.5,0.3,1,0.7,1.3,1.2c0.3,0.5,0.5,1,0.7,1.6s0.2,1.3,0.2,2c0,0.6,0,1.3,0,2c0,0.7,0,1.4,0,2
	c0,0.6,0,1.1,0,1.4c0,0.1,0,0.2,0.1,0.3c0,0.1,0.1,0.2,0.2,0.2c0.2,0.2,0.4,0.3,0.6,0.4c0.2,0.1,0.5,0.2,0.9,0.2c0,0.1,0,0.3,0,0.5
	c0,0.3-0.1,0.4-0.2,0.5c-0.2,0-0.6,0-1.2,0c-0.5,0-1.3-0.1-2.3-0.1c-0.5,0-1,0-1.4,0c-0.4,0-0.7,0.1-1,0.1s-0.6,0-1,0
	c0-0.1-0.1-0.2-0.1-0.4c0-0.2,0-0.3,0-0.4c0-0.1,0-0.2,0.1-0.3l0.8-0.2c0.2-0.1,0.3-0.2,0.4-0.3c0.1-0.2,0.2-0.4,0.2-0.6
	c0-0.3,0-0.7,0-1.3c0-0.6,0-1.2,0-1.8c0-0.7,0-1.3,0-1.9c0-0.6,0-1.1-0.1-1.4c-0.1-0.3-0.2-0.6-0.3-0.8c-0.2-0.3-0.4-0.5-0.6-0.6
	c-0.2-0.1-0.4-0.2-0.7-0.3c-0.2,0-0.4-0.1-0.7-0.1c-0.2,0-0.4,0-0.6,0.1c-0.3,0.1-0.6,0.2-0.8,0.3c-0.1,0.1-0.1,0.2-0.2,0.3
	c0,0.1,0,0.2,0,0.3c0,0.7,0,1.4,0,2.3c0,0.9,0,1.8,0,2.6c0,0.9,0,1.6,0,2.1c0,0.4,0.1,0.7,0.2,0.9c0.1,0.1,0.3,0.2,0.5,0.3
	c0.1,0.1,0.3,0.1,0.3,0.1c0.1,0,0.3,0.1,0.5,0.1c0,0,0,0.1,0,0.3c0,0.1,0,0.3,0,0.5c0,0.1-0.1,0.2-0.1,0.3c-0.6,0-1.2,0-1.8,0
	c-0.6,0-1.2-0.1-1.9-0.1c-0.7,0-1.3,0-1.7,0c-0.4,0-0.8,0.1-1.1,0.1c-0.3,0-0.5,0-0.7,0c-0.1-0.1-0.1-0.3-0.1-0.5s0-0.4,0-0.5
	c0.2,0,0.3-0.1,0.5-0.1c0.2,0,0.3-0.1,0.5-0.1c0.2-0.1,0.4-0.2,0.5-0.4s0.2-0.5,0.2-0.8c0-0.3,0-0.8,0-1.3c0-0.6,0-1.2,0-1.8
	c0-0.6,0-1.1,0-1.6c0-0.3,0-0.6,0-0.9c0-0.3,0-0.6,0-0.9c0-0.3,0-0.5,0-0.6c0-0.1-0.1-0.3-0.3-0.5c-0.2-0.2-0.6-0.4-1.2-0.7
	c0-0.1,0-0.3,0-0.4c0-0.2,0.1-0.4,0.1-0.5c0.6-0.1,1.3-0.2,1.9-0.3c0.6-0.2,1.2-0.3,1.8-0.5c0.6-0.2,1-0.4,1.4-0.6c0,0,0,0.1,0,0.1
	c0,0.1,0.1,0.1,0.1,0.1v1.7c0,0,0,0.1,0,0.1c0,0,0.1,0,0.1,0C131,11,131.7,10.5,132.4,10.2z M142.3,12.4c-0.1-0.1-0.2-0.2-0.4-0.3
	c-0.2-0.1-0.4-0.2-0.8-0.4c-0.1-0.1-0.1-0.3-0.1-0.5c0-0.2,0-0.4,0.1-0.4c0.3,0,0.7,0,1.3-0.1c0.7-0.1,1.4-0.2,2.1-0.4
	c0.7-0.2,1.4-0.4,1.9-0.6c0,0.4,0,0.9,0,1.5c0,0.6,0,1.2,0,1.9s0,1.3,0,1.9c0,0.8,0,1.6,0,2.6c0,0.9,0,1.7,0,2.4
	c0,0.4,0,0.7,0.1,0.9c0.1,0.2,0.3,0.3,0.5,0.4l1.1,0.3c0,0,0,0.1,0,0.3c0,0.1,0,0.3,0,0.5c0,0.1-0.1,0.2-0.1,0.3c-0.3,0-0.8,0-1.4,0
	c-0.6,0-1.4-0.1-2.3-0.1c-0.9,0-1.6,0-2.2,0.1c-0.6,0-1,0-1.4,0c0-0.1-0.1-0.2-0.1-0.3c0-0.2,0-0.3,0-0.5c0-0.2,0-0.3,0.1-0.3
	c0.3,0,0.5-0.1,0.6-0.1c0.2-0.1,0.3-0.1,0.5-0.1c0.2-0.1,0.3-0.2,0.4-0.4s0.1-0.5,0.1-0.8c0-0.2,0-0.6,0-1c0-0.4,0-0.9,0-1.5
	s0-1,0-1.6c0-0.5,0-1.1,0-1.6c0-0.5,0-0.9,0-1.1c0-0.1,0-0.3,0-0.4C142.5,12.6,142.4,12.5,142.3,12.4z M143.5,4.5
	c0.4-0.1,0.9-0.2,1.3-0.3c0.4,0,0.7,0.1,0.9,0.1c0.3,0.1,0.4,0.2,0.5,0.3c0.1,0.2,0.2,0.3,0.2,0.5c0,0.3,0,0.5,0,0.6
	c0,0.3-0.1,0.6-0.3,0.9c-0.1,0.3-0.3,0.6-0.6,0.9c-0.1,0.1-0.3,0.1-0.6,0.2c-0.3,0.1-0.6,0.1-1,0.1c-0.3,0-0.5,0-0.7-0.1
	c-0.3-0.1-0.5-0.3-0.6-0.6c-0.2-0.2-0.3-0.5-0.4-0.8c0-0.2,0-0.5,0-0.8c0-0.3,0.1-0.6,0.2-0.8C142.8,4.8,143.1,4.6,143.5,4.5z
	 M172,23.9c-0.6,0-1.1-0.1-1.6-0.1c-0.2,0-0.4,0-0.5,0.1c-0.1,0.1-0.2,0.1-0.3,0.1c-0.3,0.2-0.6,0.5-0.7,0.8
	c-0.1,0.3-0.2,0.6-0.1,0.8c0,0.3,0,0.6,0.1,0.9c0.1,0.3,0.3,0.5,0.6,0.8c0.4,0.4,0.9,0.7,1.4,0.9c0.6,0.2,1.2,0.3,1.9,0.3
	c0.8,0,1.5-0.1,2-0.3c0.5-0.2,0.9-0.5,1.1-0.9c0.2-0.3,0.3-0.7,0.3-1.1c0-0.3,0-0.6-0.3-0.9c-0.2-0.3-0.4-0.5-0.8-0.8
	c-0.4-0.2-0.9-0.3-1.4-0.5C173.1,24,172.5,23.9,172,23.9z M162.9,15c0,0.6,0,1.3,0,2c0,0.7,0,1.4,0,2c0,0.6,0,1.1,0,1.4
	c0,0.1,0,0.2,0.1,0.3c0,0.1,0.1,0.2,0.2,0.2c0.2,0.2,0.4,0.3,0.6,0.4c0.2,0.1,0.5,0.2,0.9,0.2c0,0.1,0,0.3,0,0.5
	c0,0.3-0.1,0.4-0.2,0.5c-0.2,0-0.6,0-1.2,0c-0.5,0-1.3-0.1-2.3-0.1c-0.5,0-1,0-1.4,0c-0.4,0-0.7,0.1-1,0.1s-0.6,0-1,0
	c0-0.1-0.1-0.2-0.1-0.4c0-0.2,0-0.3,0-0.4c0-0.1,0-0.2,0.1-0.3l0.8-0.2c0.2-0.1,0.3-0.2,0.4-0.3c0.1-0.2,0.2-0.4,0.2-0.6
	c0-0.3,0-0.7,0-1.3c0-0.6,0-1.2,0-1.8c0-0.7,0-1.3,0-1.9c0-0.6,0-1.1-0.1-1.4c-0.1-0.3-0.2-0.6-0.3-0.8c-0.2-0.3-0.4-0.5-0.6-0.6
	c-0.2-0.1-0.4-0.2-0.7-0.3c-0.2,0-0.4-0.1-0.7-0.1c-0.2,0-0.4,0-0.6,0.1c-0.3,0.1-0.6,0.2-0.8,0.3c-0.1,0.1-0.1,0.2-0.2,0.3
	c0,0.1,0,0.2,0,0.3c0,0.7,0,1.4,0,2.3c0,0.9,0,1.8,0,2.6c0,0.9,0,1.6,0,2.1c0,0.4,0.1,0.7,0.2,0.9c0.1,0.1,0.3,0.2,0.5,0.3
	c0.1,0.1,0.3,0.1,0.3,0.1c0.1,0,0.3,0.1,0.5,0.1c0,0,0,0.1,0,0.3c0,0.1,0,0.3,0,0.5c0,0.1-0.1,0.2-0.1,0.3c-0.6,0-1.2,0-1.8,0
	c-0.6,0-1.2-0.1-1.9-0.1c-0.7,0-1.3,0-1.7,0c-0.4,0-0.8,0.1-1.1,0.1c-0.3,0-0.5,0-0.7,0c-0.1-0.1-0.1-0.3-0.1-0.5s0-0.4,0-0.5
	c0.2,0,0.3-0.1,0.5-0.1c0.2,0,0.3-0.1,0.5-0.1c0.2-0.1,0.4-0.2,0.5-0.4s0.2-0.5,0.2-0.8c0-0.3,0-0.8,0-1.3c0-0.6,0-1.2,0-1.8
	c0-0.6,0-1.1,0-1.6c0-0.3,0-0.6,0-0.9c0-0.3,0-0.6,0-0.9c0-0.3,0-0.5,0-0.6c0-0.1-0.1-0.3-0.3-0.5c-0.2-0.2-0.6-0.4-1.2-0.7
	c0-0.1,0-0.3,0-0.4c0-0.2,0.1-0.4,0.1-0.5c0.6-0.1,1.3-0.2,1.9-0.3c0.6-0.2,1.2-0.3,1.8-0.5c0.6-0.2,1-0.4,1.4-0.6c0,0,0,0.1,0,0.1
	c0,0.1,0.1,0.1,0.1,0.1v1.7c0,0,0,0.1,0,0.1c0,0,0.1,0,0.1,0c0.7-0.6,1.4-1.1,2.1-1.4c0.7-0.3,1.3-0.5,1.8-0.5
	c0.7,0,1.3,0.1,1.8,0.4c0.5,0.3,1,0.7,1.3,1.2c0.3,0.5,0.5,1,0.7,1.6S162.9,14.3,162.9,15z M171.5,10.8c-0.5,0-0.8,0.2-1.2,0.7
	c-0.3,0.5-0.4,1.1-0.4,2c0,1.5,0.2,2.5,0.6,3.2s0.9,1,1.5,1c0.2,0,0.4,0,0.5-0.1c0.2-0.1,0.3-0.2,0.5-0.4c0.2-0.2,0.3-0.5,0.4-1
	c0.1-0.4,0.2-0.9,0.2-1.5c0-0.7-0.1-1.4-0.2-2c-0.2-0.6-0.4-1.1-0.7-1.4C172.4,11,172,10.8,171.5,10.8z M173.8,9.9
	c0.5,0.1,1.1,0.3,1.6,0.5c0.3,0.1,0.7,0.1,1,0.2c0.3,0.1,0.6,0.1,0.9,0.1c0.5,0,0.9,0,1.2-0.1c0.2-0.1,0.5-0.3,0.7-0.5
	c0.1,0,0.2,0,0.3,0.1c0.1,0.1,0.2,0.1,0.2,0.2c0,0.1,0,0.3-0.1,0.6c-0.1,0.3-0.2,0.5-0.3,0.8c-0.1,0.2-0.2,0.4-0.4,0.5
	c-0.1,0.1-0.3,0.2-0.5,0.3c-0.2,0-0.4,0.1-0.6,0.1c-0.1,0-0.3,0-0.4,0c-0.1,0-0.1,0-0.3,0l0,0v0.1c0.1,0.2,0.1,0.4,0.2,0.6
	c0,0.2,0,0.5,0,0.7c0,0.9-0.1,1.6-0.4,2.3c-0.3,0.6-0.8,1.1-1.3,1.5c-0.2,0.2-0.6,0.4-1.2,0.6c-0.6,0.2-1.4,0.4-2.4,0.5
	c-0.1,0-0.2,0-0.3,0c-0.2,0-0.3,0-0.5,0c-0.2,0-0.3,0-0.3,0c-0.1,0-0.2,0.1-0.3,0.2c-0.1,0.1-0.2,0.2-0.2,0.3c0,0.2,0.1,0.4,0.3,0.5
	c0.2,0.1,0.5,0.2,0.8,0.3c0.5,0,1,0.1,1.7,0.1c0.7,0,1.3,0.1,2,0.2c0.6,0.1,1.2,0.2,1.6,0.3c0.4,0.1,0.8,0.3,1.2,0.5s0.7,0.6,1,1.1
	c0.2,0.4,0.4,1,0.4,1.6c0,1.2-0.4,2.3-1.2,3.2c-0.8,0.9-1.8,1.7-3,2.2c-0.6,0.3-1.2,0.5-1.9,0.7c-0.7,0.1-1.3,0.2-1.9,0.2
	c-0.7,0-1.3-0.1-2-0.2c-0.6-0.2-1.2-0.4-1.7-0.7c-0.5-0.3-1-0.8-1.3-1.3c-0.3-0.5-0.5-1-0.5-1.5c0-0.2,0-0.5,0-0.7
	c0-0.2,0.1-0.4,0.1-0.5c0.2-0.2,0.5-0.4,0.9-0.6c0.3-0.2,0.7-0.4,1-0.6c0.3-0.2,0.6-0.4,0.8-0.5c0,0,0,0,0,0s0,0,0,0
	c-0.6-0.3-1.1-0.6-1.5-1c-0.4-0.4-0.5-0.9-0.5-1.5c0-0.1,0-0.2,0-0.3c0-0.1,0.1-0.2,0.1-0.3c0.1-0.1,0.4-0.2,0.7-0.4
	c0.4-0.2,0.7-0.4,1.1-0.6c0.4-0.2,0.6-0.4,0.8-0.5c0,0,0-0.1,0-0.1s0-0.1,0-0.1c-1.1-0.4-1.9-0.9-2.4-1.7c-0.5-0.7-0.8-1.6-0.8-2.5
	c0-0.7,0.2-1.4,0.5-2c0.3-0.6,0.8-1.2,1.4-1.6c0.5-0.4,1.2-0.7,1.9-0.9c0.7-0.2,1.4-0.3,2.1-0.3S173.3,9.8,173.8,9.9z M183.8,1.6
	c0.7,0,1.4,0.2,2,0.5c0.6,0.3,1.1,0.8,1.4,1.4c0.3,0.5,0.5,1.1,0.5,1.8c0,0.7-0.2,1.4-0.5,2c-0.3,0.6-0.8,1-1.4,1.4
	c-0.6,0.3-1.2,0.5-2,0.5s-1.4-0.2-1.9-0.5c-0.6-0.3-1-0.8-1.4-1.4c-0.3-0.6-0.5-1.2-0.5-2c0-0.7,0.2-1.3,0.5-1.8
	c0.4-0.6,0.8-1,1.4-1.4C182.5,1.8,183.1,1.6,183.8,1.6z M183.8,3.4c0.3,0,0.6,0,0.8,0.1c0.2,0.1,0.4,0.1,0.5,0.2
	c0.1,0.1,0.2,0.2,0.3,0.3c0.1,0.1,0.1,0.3,0.1,0.5c0,0.2-0.1,0.4-0.2,0.5c-0.1,0.2-0.3,0.3-0.5,0.4v0.1c0.2,0.1,0.3,0.2,0.4,0.3
	c0.1,0.2,0.2,0.4,0.3,0.6c0.1,0.3,0.1,0.5,0.1,0.6s0.1,0.2,0.2,0.3h-1c-0.1-0.1-0.1-0.2-0.2-0.3c0-0.2-0.1-0.4-0.1-0.6
	c0-0.2-0.1-0.4-0.3-0.4c-0.1-0.1-0.3-0.2-0.5-0.2h-0.5v1.5h-0.8V3.5c0.2,0,0.4-0.1,0.6-0.1C183.3,3.4,183.5,3.4,183.8,3.4z
	 M184.5,4.6c0-0.2,0-0.3-0.1-0.4C184.3,4.1,184,4,183.8,4c-0.1,0-0.2,0-0.3,0c-0.1,0-0.2,0-0.2,0.1v1h0.4c0.2,0,0.4,0,0.6-0.1
	C184.5,5,184.5,4.8,184.5,4.6z M183.8,2.4c-0.6,0-1.1,0.1-1.5,0.4c-0.4,0.3-0.8,0.6-1,1c-0.3,0.5-0.4,1-0.4,1.5
	c0,0.6,0.1,1.1,0.4,1.6c0.2,0.4,0.6,0.8,1,1c0.5,0.3,1,0.4,1.6,0.4c0.5,0,1-0.1,1.4-0.4c0.4-0.2,0.8-0.6,1-1
	c0.3-0.4,0.4-0.9,0.4-1.5c0-0.6-0.1-1.1-0.4-1.5c-0.2-0.5-0.6-0.8-1-1.1C184.9,2.5,184.4,2.4,183.8,2.4z"/>
</svg>
